<?xml version="1.0" encoding="utf-8"?>
<!-- Generator: Adobe Illustrator 24.0.0, SVG Export Plug-In . SVG Version: 6.00 Build 0)  -->
<svg version="1.1" id="Layer_1" xmlns="http://www.w3.org/2000/svg" xmlns:xlink="http://www.w3.org/1999/xlink" x="0px" y="0px"
	 viewBox="0 0 110 110" style="enable-background:new 0 0 110 110;" xml:space="preserve">
<style type="text/css">
	.st0{fill:#1A428A;stroke:#1A428A;stroke-width:0.25;stroke-miterlimit:10;}
	.st1{fill:#FF8300;stroke:#FF8300;stroke-width:0.25;stroke-miterlimit:10;}
	.st2{fill:#FF8300;}
	.st3{fill:#1A428A;}
</style>
<path class="st0" d="M22.3,91.6c-0.1,0.2-0.2,0.3-0.3,0.4s-0.3,0.2-0.5,0.2c-0.2,0.1-0.4,0.1-0.6,0.1h-1v1.4h-0.5v-4H21
	c0.2,0,0.4,0,0.6,0.1c0.2,0.1,0.3,0.1,0.5,0.3c0.1,0.1,0.2,0.2,0.3,0.4c0.1,0.2,0.1,0.3,0.1,0.5C22.5,91.3,22.4,91.5,22.3,91.6z
	 M21.7,90.4c-0.2-0.1-0.5-0.2-0.8-0.2h-1V92h1c0.2,0,0.3,0,0.4-0.1c0.1,0,0.3-0.1,0.3-0.2c0.1-0.1,0.2-0.2,0.2-0.3
	c0.1-0.1,0.1-0.2,0.1-0.4C22,90.8,21.9,90.6,21.7,90.4z"/>
<path class="st0" d="M26.1,93.8L25,92.2h-1.1v1.6h-0.5v-4h1.7c0.2,0,0.4,0,0.6,0.1c0.2,0.1,0.3,0.1,0.5,0.2c0.1,0.1,0.2,0.2,0.3,0.4
	c0.1,0.1,0.1,0.3,0.1,0.5c0,0.2,0,0.3-0.1,0.4c-0.1,0.1-0.1,0.2-0.2,0.3C26.1,91.9,26,92,25.9,92c-0.1,0.1-0.3,0.1-0.4,0.1l1.2,1.6
	H26.1z M25.8,90.4c-0.2-0.1-0.4-0.2-0.8-0.2h-1.2v1.6H25c0.1,0,0.3,0,0.4-0.1c0.1,0,0.2-0.1,0.3-0.2c0.1-0.1,0.2-0.2,0.2-0.3
	c0.1-0.1,0.1-0.2,0.1-0.3C26.1,90.8,26,90.6,25.8,90.4z"/>
<path class="st0" d="M31.3,92.6c-0.1,0.2-0.2,0.5-0.4,0.7c-0.2,0.2-0.4,0.3-0.6,0.5s-0.5,0.2-0.8,0.2c-0.3,0-0.6-0.1-0.8-0.2
	c-0.2-0.1-0.5-0.3-0.6-0.4c-0.2-0.2-0.3-0.4-0.4-0.7s-0.1-0.5-0.1-0.8c0-0.3,0-0.5,0.1-0.8c0.1-0.2,0.2-0.5,0.4-0.7s0.4-0.3,0.6-0.5
	s0.5-0.2,0.8-0.2c0.3,0,0.6,0.1,0.8,0.2c0.2,0.1,0.5,0.3,0.6,0.4c0.2,0.2,0.3,0.4,0.4,0.7s0.1,0.5,0.1,0.8
	C31.5,92.1,31.4,92.3,31.3,92.6z M30.9,91.2c-0.1-0.2-0.2-0.4-0.3-0.5c-0.1-0.1-0.3-0.3-0.5-0.4c-0.2-0.1-0.4-0.1-0.6-0.1
	c-0.2,0-0.4,0-0.6,0.1c-0.2,0.1-0.4,0.2-0.5,0.4c-0.1,0.1-0.2,0.3-0.3,0.5s-0.1,0.4-0.1,0.6c0,0.2,0,0.4,0.1,0.6s0.2,0.4,0.3,0.5
	s0.3,0.3,0.5,0.4c0.2,0.1,0.4,0.1,0.6,0.1c0.2,0,0.4,0,0.6-0.1c0.2-0.1,0.4-0.2,0.5-0.4c0.1-0.1,0.2-0.3,0.3-0.5
	C31,92.2,31,92,31,91.8S31,91.4,30.9,91.2z"/>
<path class="st0" d="M34.3,93.1c-0.1,0.2-0.1,0.3-0.3,0.4c-0.1,0.1-0.2,0.2-0.4,0.3c-0.2,0.1-0.3,0.1-0.5,0.1
	c-0.3,0-0.5-0.1-0.7-0.2s-0.4-0.3-0.5-0.5l0.3-0.3c0.1,0.2,0.3,0.3,0.4,0.4c0.1,0.1,0.3,0.1,0.5,0.1c0.2,0,0.4-0.1,0.6-0.2
	c0.1-0.2,0.2-0.4,0.2-0.7v-2.7h0.5v2.7C34.4,92.7,34.4,92.9,34.3,93.1z"/>
<path class="st0" d="M38.4,90.2H36v1.4h2.2V92H36v1.4h2.5v0.4h-2.9v-4h2.9V90.2z"/>
<path class="st0" d="M42.6,93.5c-0.1,0.1-0.2,0.2-0.4,0.2c-0.1,0.1-0.3,0.1-0.4,0.1c-0.1,0-0.3,0.1-0.5,0.1c-0.3,0-0.6-0.1-0.8-0.2
	c-0.2-0.1-0.5-0.3-0.6-0.4c-0.2-0.2-0.3-0.4-0.4-0.7c-0.1-0.3-0.2-0.5-0.2-0.8c0-0.3,0.1-0.6,0.2-0.8c0.1-0.3,0.2-0.5,0.4-0.7
	c0.2-0.2,0.4-0.3,0.6-0.4c0.2-0.1,0.5-0.2,0.8-0.2c0.2,0,0.3,0,0.5,0c0.1,0,0.3,0.1,0.4,0.1c0.1,0.1,0.2,0.1,0.3,0.2
	c0.1,0.1,0.2,0.2,0.3,0.3l-0.3,0.3c-0.2-0.2-0.4-0.3-0.6-0.4c-0.2-0.1-0.4-0.2-0.7-0.2c-0.2,0-0.4,0-0.6,0.1
	c-0.2,0.1-0.4,0.2-0.5,0.3c-0.1,0.1-0.2,0.3-0.3,0.5c-0.1,0.2-0.1,0.4-0.1,0.6c0,0.2,0,0.4,0.1,0.7c0.1,0.2,0.2,0.4,0.3,0.5
	c0.1,0.1,0.3,0.3,0.5,0.4c0.2,0.1,0.4,0.1,0.6,0.1c0.3,0,0.5,0,0.7-0.2c0.2-0.1,0.4-0.2,0.6-0.4l0.3,0.3
	C42.8,93.3,42.7,93.4,42.6,93.5z"/>
<path class="st0" d="M45.2,93.8h-0.5v-3.6h-1.3v-0.4h3.1v0.4h-1.3V93.8z"/>
<path class="st0" d="M51.2,92.7L51.2,92.7l-1.5-2.1v3.2h-0.4v-4h0.5l1.5,2.2l1.5-2.2h0.5v4h-0.5v-3.2L51.2,92.7z"/>
<path class="st0" d="M58,93.8h-0.5l-0.5-1.1h-2.2l-0.5,1.1H54l1.8-4h0.4L58,93.8z M56,90.3l-0.9,2h1.8L56,90.3z"/>
<path class="st0" d="M61.9,89.8h0.4v4h-0.4l-2.6-3.3v3.3h-0.4v-4h0.4l2.5,3.2V89.8z"/>
<path class="st0" d="M67.2,93.8h-0.5l-0.5-1.1h-2.2l-0.5,1.1h-0.5l1.8-4h0.4L67.2,93.8z M65.2,90.3l-0.9,2h1.8L65.2,90.3z"/>
<path class="st0" d="M70.6,93.7c-0.3,0.1-0.6,0.2-0.9,0.2c-0.3,0-0.6-0.1-0.8-0.2c-0.2-0.1-0.5-0.3-0.6-0.4
	c-0.2-0.2-0.3-0.4-0.4-0.7c-0.1-0.3-0.1-0.5-0.1-0.8c0-0.3,0-0.5,0.1-0.8c0.1-0.3,0.2-0.5,0.4-0.7c0.2-0.2,0.4-0.3,0.6-0.5
	c0.2-0.1,0.5-0.2,0.8-0.2c0.2,0,0.3,0,0.5,0c0.1,0,0.3,0.1,0.4,0.1s0.2,0.1,0.3,0.2c0.1,0.1,0.2,0.1,0.3,0.2l-0.3,0.3
	c-0.1-0.1-0.2-0.1-0.2-0.2c-0.1-0.1-0.2-0.1-0.3-0.1c-0.1,0-0.2-0.1-0.3-0.1c-0.1,0-0.2,0-0.4,0c-0.2,0-0.4,0-0.6,0.1
	s-0.3,0.2-0.5,0.4s-0.2,0.3-0.3,0.5c-0.1,0.2-0.1,0.4-0.1,0.6c0,0.2,0,0.5,0.1,0.7c0.1,0.2,0.2,0.4,0.3,0.5s0.3,0.3,0.5,0.3
	c0.2,0.1,0.4,0.1,0.7,0.1c0.2,0,0.4,0,0.6-0.1c0.2-0.1,0.4-0.2,0.5-0.3v-1h-1.2v-0.4h1.6v1.6C71.1,93.4,70.9,93.6,70.6,93.7z"/>
<path class="st0" d="M75.3,90.2h-2.4v1.4H75V92h-2.2v1.4h2.5v0.4h-2.9v-4h2.9V90.2z"/>
<path class="st0" d="M78.2,92.7L78.2,92.7l-1.5-2.1v3.2h-0.4v-4h0.5l1.5,2.2l1.5-2.2h0.5v4h-0.5v-3.2L78.2,92.7z"/>
<path class="st0" d="M84.2,90.2h-2.4v1.4h2.2V92h-2.2v1.4h2.5v0.4h-2.9v-4h2.9V90.2z"/>
<path class="st0" d="M88.2,89.8h0.4v4h-0.4l-2.6-3.3v3.3h-0.4v-4h0.4l2.5,3.2V89.8z"/>
<path class="st0" d="M91.3,93.8h-0.5v-3.6h-1.3v-0.4h3.1v0.4h-1.3V93.8z"/>
<path class="st1" d="M56.7,95.7h0.4v1.2h1.2v0.4h-1.2v1.2h-0.4v-1.2h-1.2v-0.4h1.2V95.7z"/>
<path class="st0" d="M37.8,103.3c-0.1,0.2-0.2,0.5-0.4,0.6c-0.2,0.2-0.4,0.3-0.7,0.4s-0.5,0.2-0.9,0.2h-1.4v-4h1.4
	c0.3,0,0.6,0,0.9,0.2c0.3,0.1,0.5,0.2,0.7,0.4c0.2,0.2,0.3,0.4,0.4,0.6c0.1,0.2,0.2,0.5,0.2,0.8C38,102.8,37.9,103,37.8,103.3z
	 M37.4,101.9c-0.1-0.2-0.2-0.4-0.3-0.5s-0.3-0.3-0.5-0.3c-0.2-0.1-0.4-0.1-0.7-0.1h-0.9v3.2h0.9c0.3,0,0.5,0,0.7-0.1
	c0.2-0.1,0.4-0.2,0.5-0.3s0.3-0.3,0.3-0.5s0.1-0.4,0.1-0.6C37.5,102.3,37.5,102.1,37.4,101.9z"/>
<path class="st0" d="M41.9,100.9h-2.4v1.4h2.2v0.4h-2.2v1.4h2.5v0.4H39v-4h2.9V100.9z"/>
<path class="st0" d="M45.9,100.5h0.5l-1.7,4h-0.4l-1.7-4H43l1.4,3.4L45.9,100.5z"/>
<path class="st0" d="M50.1,100.9h-2.4v1.4h2.2v0.4h-2.2v1.4h2.5v0.4h-2.9v-4h2.9V100.9z"/>
<path class="st0" d="M51.1,100.5h0.5v3.6h2.2v0.4h-2.7V100.5z"/>
<path class="st0" d="M58.3,103.3c-0.1,0.2-0.2,0.5-0.4,0.7c-0.2,0.2-0.4,0.3-0.6,0.5s-0.5,0.2-0.8,0.2c-0.3,0-0.6-0.1-0.8-0.2
	c-0.2-0.1-0.5-0.3-0.6-0.4c-0.2-0.2-0.3-0.4-0.4-0.7s-0.1-0.5-0.1-0.8c0-0.3,0-0.5,0.1-0.8c0.1-0.2,0.2-0.5,0.4-0.7s0.4-0.3,0.6-0.5
	s0.5-0.2,0.8-0.2c0.3,0,0.6,0.1,0.8,0.2c0.2,0.1,0.5,0.3,0.6,0.4c0.2,0.2,0.3,0.4,0.4,0.7c0.1,0.2,0.1,0.5,0.1,0.8
	C58.4,102.8,58.4,103,58.3,103.3z M57.8,101.8c-0.1-0.2-0.2-0.4-0.3-0.5s-0.3-0.3-0.5-0.4c-0.2-0.1-0.4-0.1-0.6-0.1
	c-0.2,0-0.4,0-0.6,0.1c-0.2,0.1-0.4,0.2-0.5,0.4c-0.1,0.1-0.2,0.3-0.3,0.5s-0.1,0.4-0.1,0.6c0,0.2,0,0.4,0.1,0.6s0.2,0.4,0.3,0.5
	s0.3,0.3,0.5,0.4c0.2,0.1,0.4,0.1,0.6,0.1c0.2,0,0.4,0,0.6-0.1c0.2-0.1,0.4-0.2,0.5-0.4c0.1-0.1,0.2-0.3,0.3-0.5
	c0.1-0.2,0.1-0.4,0.1-0.6S57.9,102,57.8,101.8z"/>
<path class="st0" d="M62.3,102.3c-0.1,0.2-0.2,0.3-0.3,0.4s-0.3,0.2-0.5,0.2c-0.2,0.1-0.4,0.1-0.6,0.1h-1v1.4h-0.5v-4h1.5
	c0.2,0,0.4,0,0.6,0.1c0.2,0.1,0.3,0.1,0.5,0.3c0.1,0.1,0.2,0.2,0.3,0.4c0.1,0.2,0.1,0.3,0.1,0.5C62.4,102,62.4,102.2,62.3,102.3z
	 M61.7,101.1c-0.2-0.1-0.5-0.2-0.8-0.2h-1v1.8h1c0.2,0,0.3,0,0.4-0.1s0.3-0.1,0.3-0.2c0.1-0.1,0.2-0.2,0.2-0.3s0.1-0.2,0.1-0.4
	C62,101.5,61.9,101.3,61.7,101.1z"/>
<path class="st0" d="M65.3,103.4L65.3,103.4l-1.5-2.1v3.2h-0.4v-4h0.5l1.5,2.2l1.5-2.2h0.5v4h-0.5v-3.2L65.3,103.4z"/>
<path class="st0" d="M71.3,100.9h-2.4v1.4H71v0.4h-2.2v1.4h2.5v0.4h-2.9v-4h2.9V100.9z"/>
<path class="st0" d="M75.2,100.5h0.4v4h-0.4l-2.6-3.3v3.3h-0.4v-4h0.4l2.5,3.2V100.5z"/>
<path class="st0" d="M78.4,104.5h-0.5v-3.6h-1.3v-0.4h3.1v0.4h-1.3V104.5z"/>
<g id="XMLID_755_">
	<path id="XMLID_757_" class="st2" d="M33,20.8H19.5v30.7h7.1v-9.7H33c6.8,0,11.7-4.4,11.7-10.5C44.7,25.2,39.8,20.8,33,20.8z
		 M26.6,27.6h5.8c3.7,0,5.1,2,5.1,3.8c0,1.8-1.3,3.8-5.1,3.8h-5.8V27.6z"/>
	<polygon id="XMLID_756_" class="st2" points="70.5,20.8 61.5,37.3 52.6,20.8 45.9,20.8 45.9,51.5 53,51.5 53,35.1 61.5,50.9 
		70.1,35.1 70.1,51.5 77.2,51.5 77.2,20.8 	"/>
</g>
<g id="XMLID_746_">
	<path id="XMLID_754_" class="st3" d="M30.9,63.1c-1.7,0-3.3,0.3-4.8,1l0.2-4.8h13.6v-6.7H19.5L19,69.5l4.7,2l0.4-0.3
		c1.6-1.2,3.3-1.8,5.3-1.8c2.9,0,4.8,1.5,4.8,3.9c0,2.4-2,4.1-4.8,4.1c-2.4,0-4.8-1.2-7.1-3.4l-0.7-0.7l-4.3,5.2l0.6,0.6
		c3,3.1,6.9,4.7,11.5,4.7c7.2,0,12-4.3,12-10.8C41.4,67.2,37.1,63.1,30.9,63.1z"/>
	<path id="XMLID_748_" class="st3" d="M65.9,56.9c-2.5-2.9-5.9-4.5-9.8-4.5c-3.9,0-7.4,1.6-9.8,4.5c-2.4,2.9-3.8,6.9-3.8,11.3
		c0,4.5,1.3,8.5,3.8,11.4c2.5,2.9,6,4.5,9.8,4.5c3.9,0,7.3-1.6,9.8-4.5c2.4-2.9,3.7-6.9,3.7-11.4C69.6,63.8,68.3,59.8,65.9,56.9z
		 M56.1,77.4c-3.7,0-6.3-3.8-6.3-9.2c0-5.4,2.6-9.1,6.3-9.1c3.7,0,6.3,3.8,6.3,9.1C62.4,73.7,59.8,77.4,56.1,77.4z"/>
	<path id="XMLID_747_" class="st3" d="M81.4,77.2l3.9-3.2c5-3.9,7.1-7.2,7.1-11.4c0-5.8-4.6-9.9-11-9.9c-4.7,0-8.5,2-11.6,6
		l-0.5,0.7l4.8,4.4l0.6-0.8c2.2-2.6,4.1-3.7,6.6-3.7c2,0,3.9,1.2,3.9,3.4c0,2.1-1.3,4.1-4.6,6.7l-11,8.8v5.7h23.1v-6.7H81.4z"/>
</g>
<polygon id="XMLID_745_" class="st3" points="85.3,13 85.3,5.4 79.1,5.4 79.1,13 71.7,13 71.7,19 79.1,19 79.1,26.5 85.3,26.5 
	85.3,19 92.7,19 92.7,13 "/>
</svg>
